<svg width="1440" height="900" viewBox="0 0 1440 900" fill="none" xmlns="http://www.w3.org/2000/svg">
<g opacity="0.6" filter="url(#filter0_f_69_855)">
<ellipse cx="664.5" cy="489" rx="578.5" ry="386" fill="#308FFF" fill-opacity="0.9"/>
</g>
<g filter="url(#filter1_f_69_855)">
<ellipse cx="490.205" cy="722.538" rx="292.443" ry="444.644" transform="rotate(-85.3691 490.205 722.538)" fill="url(#paint0_linear_69_855)"/>
</g>
<mask id="mask0_69_855" style="mask-type:alpha" maskUnits="userSpaceOnUse" x="-372" y="146" width="1550" height="892">
<path d="M1177.99 1037.79L985.419 210.701L210.583 146.848L-52.8023 177.868L-371.023 596.01L-265.724 954.657L533.821 1019.42L1177.99 1037.79Z" fill="url(#paint1_linear_69_855)"/>
</mask>
<g mask="url(#mask0_69_855)">
</g>
<mask id="mask1_69_855" style="mask-type:alpha" maskUnits="userSpaceOnUse" x="-345" y="91" width="1458" height="989">
<path d="M-344.968 966.78C-313.864 590.326 -274.109 110.101 -274.048 91.2324L1112.52 203.545L1041.6 1079.09L-344.968 966.78Z" fill="url(#paint2_linear_69_855)"/>
</mask>
<g mask="url(#mask1_69_855)">
<path d="M298.977 258.109C455.364 270.777 575.927 416.268 566.135 537.156C556.343 658.044 480.187 811.56 312.398 797.969C229.25 791.234 121.747 863.867 27.8361 795.666C-67.7616 726.239 -31.5404 563.215 -26.6008 502.233C-16.8088 381.345 142.59 245.442 298.977 258.109Z" fill="url(#paint3_linear_69_855)"/>
<g filter="url(#filter2_f_69_855)">
<path d="M296.263 268.311C463.984 281.896 574.63 407.524 566.213 511.436C557.796 615.347 483.471 746.586 315.749 733.001C232.635 726.269 125.874 790.259 31.3188 730.515C-64.9349 669.697 -30.5985 529.827 -26.3526 477.408C-17.9358 373.497 128.542 254.725 296.263 268.311Z" fill="url(#paint4_linear_69_855)"/>
</g>
<g filter="url(#filter3_f_69_855)">
<path d="M301.345 268.724C489.328 283.951 612.288 437.745 601.911 565.855C591.534 693.965 506.991 856.341 319.008 841.115C225.854 833.569 104.573 925.312 -0.934959 852.551C-108.338 778.483 -99.6898 594.996 -94.4551 530.371C-84.0782 402.261 113.362 253.498 301.345 268.724Z" fill="url(#paint5_linear_69_855)"/>
</g>
<g filter="url(#filter4_f_69_855)">
<path d="M321.811 285.654C551.357 335.878 730.145 517.608 718 667.544C705.855 817.48 574.927 970.028 349.479 951.766C237.758 942.717 80.9035 1094.5 -45.7819 1009.08C-174.743 922.13 -242.626 731.135 -236.5 655.5C-224.355 505.564 55.8951 227.472 321.811 285.654Z" fill="url(#paint6_linear_69_855)"/>
</g>
<g filter="url(#filter5_f_69_855)">
<path d="M395.092 352.668C637.841 372.33 831.173 582.436 819.299 729.03C807.425 875.623 667.75 1023.82 425.001 1004.16C304.708 994.418 154.117 1038.53 17.1111 953.956C-122.356 867.859 -419.49 585.949 -413.5 512C-403.687 390.854 -71.6527 267.113 197 297.227C253.434 303.553 352.952 349.254 395.092 352.668Z" fill="url(#paint7_linear_69_855)"/>
</g>
<g filter="url(#filter6_f_69_855)">
<path d="M484.832 418.835C735.69 439.154 935.648 654.23 923.503 804.166C911.358 954.102 767.153 1105.57 516.295 1085.25C391.982 1075.19 236.409 1120.18 94.7628 1033.55C-49.4277 945.368 1.32311 743.643 7.4496 668.007C19.5945 518.071 233.974 398.515 484.832 418.835Z" fill="url(#paint8_linear_69_855)"/>
</g>
<g filter="url(#filter7_f_69_855)">
<path d="M298.084 379.708C517.585 397.488 690.547 610.377 678.402 760.313C666.257 910.249 538.437 1063.05 318.936 1045.27C210.162 1036.46 74.8602 1065.64 -48.3238 980.511C-173.721 893.849 -127.243 691.778 -121.117 616.142C-108.972 466.206 78.5826 361.929 298.084 379.708Z" fill="url(#paint9_linear_69_855)"/>
</g>
</g>
<g filter="url(#filter8_f_69_855)">
<path d="M99.5254 867.864C84.8516 820.484 119.619 713.901 164.612 602.069L176.644 453.528C187.11 324.312 389.82 375.983 554.683 464.701C719.546 553.418 715.512 549.445 701.012 674.687C686.511 799.929 774.898 743.88 873.269 806.548C971.641 869.215 764.472 754.4 640.892 841.633C517.312 928.867 592.365 953.971 422.484 859.984C252.603 765.998 256.404 808.856 247.279 854.304C238.153 899.752 290.08 903.965 281.247 945.794C272.414 987.622 251.261 966.46 181.719 937.732C112.178 909.004 114.199 915.243 99.5254 867.864Z" fill="#120ECF"/>
</g>
<mask id="mask2_69_855" style="mask-type:alpha" maskUnits="userSpaceOnUse" x="-170" y="81" width="906" height="1336">
<path d="M624.061 81.5493L-169.102 349.205L-128.109 985.982L-61.9892 1198.93L394.78 1416.19L735.787 1282.17L692.455 614.787L624.061 81.5493Z" fill="url(#paint10_linear_69_855)"/>
</mask>
<g mask="url(#mask2_69_855)">
<mask id="mask3_69_855" style="mask-type:alpha" maskUnits="userSpaceOnUse" x="-156" y="151" width="880" height="1245">
<path d="M723.768 1343.07C346.792 1367.03 -64.677 1393.04 -83.3707 1395.47L-155.708 203.421L651.431 151.016L723.768 1343.07Z" fill="url(#paint11_linear_69_855)"/>
</mask>
<g mask="url(#mask3_69_855)">
<path d="M-29.8911 908.612C-38.3666 778.075 89.5061 659.558 210.535 651.7C331.564 643.842 493.824 686.371 502.918 826.426C507.424 895.83 593.8 974.846 538.884 1061.22C482.981 1149.14 316.673 1140.77 255.62 1144.73C134.591 1152.59 -21.4156 1039.15 -29.8911 908.612Z" fill="#02EFFE"/>
<g filter="url(#filter9_f_69_855)">
<path d="M-19.4236 909.502C-28.5134 769.505 69.7898 662.507 163.753 656.406C257.716 650.305 384.455 695.119 393.544 835.117C398.049 904.492 468.773 984.49 427.334 1069.95C385.149 1156.95 255.757 1146.19 208.357 1149.27C114.394 1155.37 -10.3339 1049.5 -19.4236 909.502Z" fill="#02EFFE"/>
</g>
<g filter="url(#filter10_f_69_855)">
<path d="M-19.6979 905.265C-29.8857 748.354 92.2392 627.655 208.263 620.122C324.288 612.589 480.392 661.904 490.58 818.814C495.629 896.57 593.144 985.048 541.364 1081.18C488.655 1179.04 319.21 1168.57 260.681 1172.37C144.657 1179.9 -9.51 1062.17 -19.6979 905.265Z" fill="#02EFFE"/>
</g>
<g filter="url(#filter11_f_69_855)">
<path d="M17.0191 884.634C35.9018 688.864 191.835 517.593 341.946 507.847C492.057 498.1 660.72 585.891 672.938 774.073C678.993 867.327 850.381 976.583 782.822 1092.23C714.05 1209.95 439.161 1216.58 363.437 1221.5C213.326 1231.24 -4.85547 1111.42 17.0191 884.634Z" fill="#02EFFE"/>
</g>
<g filter="url(#filter12_f_69_855)">
<path d="M51.7693 831.419C38.6134 628.796 219.752 427.331 366.516 417.802C513.281 408.272 678.815 503.843 691.971 706.467C698.491 806.876 762.417 925.156 697.077 1049.2C630.563 1175.46 330.093 1254.44 256.057 1259.25C109.292 1268.78 64.9252 1034.04 51.7693 831.419Z" fill="#02EFFE"/>
</g>
<g filter="url(#filter13_f_69_855)">
<path d="M104.292 734.282C90.6967 524.89 276.806 331.782 426.917 322.036C577.028 312.289 746.41 411.162 760.005 620.555C766.743 724.319 573.723 892.437 506.975 1020.57C439.028 1151.01 232.443 1135.76 156.719 1140.68C6.60788 1150.43 117.888 943.675 104.292 734.282Z" fill="#02EFFE"/>
</g>
<g filter="url(#filter14_f_69_855)">
<path d="M90.6468 893.325C78.7508 710.106 266.323 539.532 416.434 529.785C566.545 520.039 735.039 605.236 746.935 788.454C752.83 879.248 799.918 986.895 732.17 1099.62C663.204 1214.37 456.85 1202.69 381.127 1207.61C231.016 1217.36 102.543 1076.54 90.6468 893.325Z" fill="#02EFFE"/>
</g>
</g>
</g>
<mask id="mask4_69_855" style="mask-type:alpha" maskUnits="userSpaceOnUse" x="-365" y="-72" width="1765" height="1528">
<path d="M1073.06 -71.0865C1179.1 287.977 1392.9 1010.46 1399.72 1027.88L-38.0322 1455.24L-364.692 356.273L1073.06 -71.0865Z" fill="url(#paint12_linear_69_855)"/>
</mask>
<g mask="url(#mask4_69_855)">
<path d="M781.233 1159.52C621.223 1171.16 444.53 1119.72 410.28 1004.49C376.029 889.263 396.724 718.535 570.707 666.82C656.924 641.192 631.294 564.978 750.783 591.912C872.419 619.329 895.423 783.534 912.701 841.661C946.951 956.889 941.243 1147.88 781.233 1159.52Z" fill="#308FFF"/>
<g filter="url(#filter15_f_69_855)">
<path d="M760.429 1158.34C491.211 1149.6 449.027 1127.28 419.587 1028.24C390.146 929.189 417.126 779.705 591.038 728.01C677.22 702.394 651.931 635.047 768.984 653.935C888.139 673.163 905.429 818.11 920.28 868.074C949.721 967.121 895.361 1169.27 760.429 1158.34Z" fill="#308FFF"/>
</g>
<g filter="url(#filter16_f_69_855)">
<path d="M774.974 1150.64C464.346 1177.99 293.129 1047.7 256.832 925.592C220.535 803.48 353.381 687.498 548.303 629.56C644.896 600.848 551.805 523.841 684.641 550.538C819.863 577.715 871.011 771.247 889.321 832.847C925.617 954.959 969.896 1092.7 774.974 1150.64Z" fill="#308FFF"/>
</g>
<g filter="url(#filter17_f_69_855)">
<path d="M748.179 1142.86C474.712 1171.2 167.789 1076.4 125.308 933.48C82.8271 790.563 243.459 608.678 477.229 539.192C593.073 504.758 513.909 358.763 672.696 389.022C834.336 419.825 860.417 624.215 881.846 696.309C924.327 839.226 1021.65 1114.53 748.179 1142.86Z" fill="#308FFF"/>
</g>
<g filter="url(#filter18_f_69_855)">
<path d="M542.594 1127.61C124.325 1093.73 116.851 1084.43 75.317 944.7C33.7833 804.969 130.322 594.607 382.031 519.788C506.765 482.712 544.759 498.596 713.636 524.129C885.547 550.121 910.953 788.719 931.904 859.206C973.438 998.937 785.157 1147.26 542.594 1127.61Z" fill="#308FFF"/>
</g>
<g filter="url(#filter19_f_69_855)">
<path d="M535.359 1082.47C275.241 1159.78 -4.67266 1038.01 -47.1534 895.097C-89.6341 752.181 0.355689 557.281 260.474 479.964C389.375 441.649 606.223 371.377 780.523 397.025C957.954 423.134 825.199 761.119 846.628 833.213C889.109 976.13 795.477 1005.15 535.359 1082.47Z" fill="#308FFF"/>
</g>
<g filter="url(#filter20_f_69_855)">
<path d="M737.758 1047.03C510.155 1114.69 258.233 984.595 215.752 841.679C173.271 698.762 246.272 508.912 473.875 441.259C586.664 407.734 497.474 392.87 652.63 424.208C810.575 456.109 837.496 660.249 858.925 732.343C901.406 875.26 965.361 979.379 737.758 1047.03Z" fill="#308FFF"/>
</g>
</g>
<g opacity="0.6" filter="url(#filter21_f_69_855)">
<path d="M475.576 495.577C668.077 511.169 876.169 702.799 868.238 800.713C860.307 898.627 985.278 1133.12 525.166 898.974C332.665 883.381 89.1122 1054.86 171.132 744.247C179.063 646.334 371.054 770.355 475.576 495.577Z" fill="url(#paint13_linear_69_855)"/>
</g>
<mask id="mask5_69_855" style="mask-type:alpha" maskUnits="userSpaceOnUse" x="156" y="-669" width="1895" height="2137">
<path d="M2050.44 -237.654L864.814 -668.909L232.757 355.711L156.798 685.017L705.472 1385.43L1264.27 1467.96L1721.19 560.042L2050.44 -237.654Z" fill="url(#paint14_linear_69_855)"/>
</mask>
<g mask="url(#mask5_69_855)">
<mask id="mask6_69_855" style="mask-type:alpha" maskUnits="userSpaceOnUse" x="309" y="-749" width="2039" height="2263">
<path d="M1486.69 1513.72C964.754 1259.64 336.333 880.661 309.489 869.697L1132.38 -748.154L2347.36 -271.253L1486.69 1513.72Z" fill="url(#paint15_linear_69_855)"/>
</mask>
<g mask="url(#mask6_69_855)">
<path d="M815.302 373.261C904.673 195.677 1166.87 137.117 1334.56 218.474C1502.26 299.831 1686.15 478.485 1590.26 669.017C1542.74 763.436 1597.15 932.462 1457.19 1004.12C1314.71 1077.07 1099.06 940.148 1014.47 899.107C846.771 817.75 725.93 550.846 815.302 373.261Z" fill="#308FFF"/>
<g filter="url(#filter22_f_69_855)">
<path d="M828.594 382.356C924.443 191.901 1138.26 126.051 1268.45 189.214C1398.65 252.377 1533.34 407.125 1437.49 597.579C1389.99 691.959 1422.74 850.419 1301.47 931.096C1178.03 1013.22 1013.52 901.121 947.848 869.259C817.655 806.096 732.745 572.811 828.594 382.356Z" fill="#308FFF"/>
</g>
<g filter="url(#filter23_f_69_855)">
<path d="M831.496 376.592C938.924 163.129 1195.12 97.3543 1355.88 175.347C1516.65 253.34 1687.08 436.23 1579.66 649.692C1526.42 755.474 1588.4 945.342 1445.1 1032.18C1299.22 1120.58 1081.01 978.519 999.909 939.175C839.148 861.182 724.068 590.055 831.496 376.592Z" fill="#308FFF"/>
</g>
<g filter="url(#filter24_f_69_855)">
<path d="M896.446 377.347C1072.67 134.946 1413.03 28.4653 1621.02 129.372C1829.01 230.278 1986.54 473.129 1857.71 729.135C1793.86 855.999 1938.47 1129.06 1759.04 1229.54C1576.39 1331.82 1204.16 1132.32 1099.24 1081.42C891.253 980.511 692.297 658.156 896.446 377.347Z" fill="#308FFF"/>
</g>
<g filter="url(#filter25_f_69_855)">
<path d="M983.902 333.889C1122.63 58.2369 1519.94 -68.7486 1723.29 29.9083C1926.65 128.565 2074 379.249 1935.27 654.901C1866.53 791.5 1860.67 995.008 1677.73 1108.17C1491.5 1223.36 1029.3 1099.36 926.719 1049.59C723.365 950.935 845.176 609.541 983.902 333.889Z" fill="#308FFF"/>
</g>
<g filter="url(#filter26_f_69_855)">
<path d="M1128.97 246.296C1272.33 -38.5643 1669.84 -150.826 1877.83 -49.9192C2085.82 50.9872 2235.76 308.915 2092.4 593.775C2021.36 734.938 1633.9 809.198 1445.92 926.661C1254.57 1046.24 990.432 869.791 885.51 818.888C677.519 717.982 985.613 531.157 1128.97 246.296Z" fill="#308FFF"/>
</g>
</g>
</g>
<mask id="mask7_69_855" style="mask-type:alpha" maskUnits="userSpaceOnUse" x="481" y="-278" width="1188" height="1518">
<path d="M865.637 -277.297C1210.59 -166.477 1650.62 -25.0377 1668.21 -20.8711L1284.02 1239.59L481.442 983.163L865.637 -277.297Z" fill="url(#paint16_linear_69_855)"/>
</mask>
<g mask="url(#mask7_69_855)">
<path d="M1348.45 521.022C1305.12 663.186 1145.08 743.221 1034.27 707.816C923.458 672.411 795.578 568.4 842.07 415.871C865.109 340.285 819.007 224.843 901.561 152.672C985.598 79.2042 1130.4 148.279 1186.3 166.139C1297.11 201.544 1391.78 378.859 1348.45 521.022Z" fill="#02EFFE"/>
<g filter="url(#filter27_f_69_855)">
<path d="M1339.48 516.285C1293.01 668.752 1153.5 743.923 1058.25 713.49C963.001 683.057 855.535 585.595 902.008 433.128C925.038 357.573 886.85 244.7 961.644 170.09C1037.78 94.1391 1161.36 156.424 1209.41 171.776C1304.66 202.209 1385.95 363.818 1339.48 516.285Z" fill="#02EFFE"/>
</g>
<g filter="url(#filter28_f_69_855)">
<path d="M1338.07 520.904C1285.98 691.79 1117.72 772.237 1000.29 734.717C882.854 697.197 748.397 583.485 800.484 412.599C826.296 327.917 765.141 195.545 854.287 113.619C945.033 30.2222 1108.03 107.857 1167.27 126.784C1284.7 164.304 1390.16 350.018 1338.07 520.904Z" fill="#02EFFE"/>
</g>
<g filter="url(#filter29_f_69_855)">
<path d="M1318.15 536.183C1225.04 737.962 1019.46 864.06 882.019 820.147C744.58 776.235 628.64 621.678 691.108 416.735C722.064 315.176 612.064 136.76 717.284 37.966C824.395 -62.6024 1003.33 25.2182 1072.66 47.37C1210.1 91.2825 1426.02 302.433 1318.15 536.183Z" fill="#02EFFE"/>
</g>
<g filter="url(#filter30_f_69_855)">
<path d="M1240.86 589.495C1173.6 810.166 938.617 943.562 804.242 900.628C669.867 857.695 559.744 695.979 627.006 475.309C660.337 365.956 649.525 216.796 756.041 108.255C864.471 -2.23506 1038.58 86.3937 1106.36 108.052C1240.74 150.985 1308.12 368.825 1240.86 589.495Z" fill="#02EFFE"/>
</g>
<g filter="url(#filter31_f_69_855)">
<path d="M1161.04 658.244C1091.54 886.287 850.582 1024.74 713.143 980.827C575.704 936.914 463.443 770.288 532.952 542.246C567.397 429.24 556.767 275.271 666.132 162.877C777.462 48.4648 955.44 139.433 1024.77 161.585C1162.21 205.498 1230.55 430.202 1161.04 658.244Z" fill="#02EFFE"/>
</g>
<g filter="url(#filter32_f_69_855)">
<path d="M1235.18 493.708C1174.36 693.246 940.887 807.158 803.447 763.246C666.008 719.333 549.208 567.602 610.028 368.064C640.167 269.184 640.202 137.444 744.452 41.8331C850.575 -55.4953 1029.74 31.5887 1099.07 53.7404C1236.51 97.6529 1296 294.171 1235.18 493.708Z" fill="#02EFFE"/>
</g>
</g>
<mask id="mask8_69_855" style="mask-type:alpha" maskUnits="userSpaceOnUse" x="570" y="-64" width="1419" height="1091">
<path d="M1988.86 201.956C1904.31 586.92 1811.87 1007.06 1808.95 1026.51L570.123 760.55L750.033 -64.0001L1988.86 201.956Z" fill="url(#paint17_linear_69_855)"/>
</mask>
<g mask="url(#mask8_69_855)">
<path d="M1293.12 811.591C1206.18 793.303 1152.34 689.644 1169.61 610.496C1186.88 531.349 1244.73 434.884 1338.02 454.506C1384.25 464.229 1451.92 423.126 1498.24 474.092C1545.39 525.974 1509.13 631.248 1500.41 671.174C1483.15 750.322 1380.06 829.879 1293.12 811.591Z" fill="#308FFF"/>
<g filter="url(#filter33_f_69_855)">
<path d="M1295.64 805.031C1202.39 785.418 1150.62 702.841 1164.02 641.393C1177.43 579.946 1230.21 506.707 1323.45 526.32C1369.66 536.039 1435.08 505.166 1483.3 547.313C1532.39 590.217 1501.39 671.351 1494.63 702.348C1481.22 763.796 1388.89 824.644 1295.64 805.031Z" fill="#308FFF"/>
</g>
<g filter="url(#filter34_f_69_855)">
<path d="M1292.82 804.437C1188.31 782.455 1131.98 682.09 1148.53 606.215C1165.09 530.34 1226.25 439.062 1330.76 461.044C1382.55 471.938 1458.47 425.403 1511.76 476.129C1566 527.767 1527.78 634.672 1519.43 672.947C1502.87 748.822 1397.33 826.42 1292.82 804.437Z" fill="#308FFF"/>
</g>
<g filter="url(#filter35_f_69_855)">
<path d="M1286.12 777.108C1161.58 729.394 1078.43 598.125 1099.85 499.959C1121.27 401.793 1209.92 309.445 1335.26 335.809C1397.37 348.874 1500.56 258.678 1563.69 323.084C1627.95 388.648 1581.39 566.374 1570.58 615.894C1549.16 714.06 1430.4 832.383 1286.12 777.108Z" fill="#308FFF"/>
</g>
<g filter="url(#filter36_f_69_855)">
<path d="M1257.75 745.12C1122.8 716.733 1024.57 563.79 1045.51 467.812C1066.45 371.835 1159.61 282.91 1294.57 311.297C1361.44 325.364 1450.64 305.815 1519.67 370.323C1589.94 435.989 1585.96 643.295 1575.39 691.711C1554.45 787.688 1392.71 773.507 1257.75 745.12Z" fill="#308FFF"/>
</g>
<g filter="url(#filter37_f_69_855)">
<path d="M1203.95 693.734C1064.48 664.398 972.641 509.783 994.06 411.617C1015.48 313.45 1111.51 222.655 1250.97 251.991C1320.09 266.528 1394.3 421.038 1465.75 487.194C1538.48 554.538 1490.26 684.427 1479.45 733.947C1458.03 832.113 1343.41 723.069 1203.95 693.734Z" fill="#308FFF"/>
</g>
<g filter="url(#filter38_f_69_855)">
<path d="M1305.44 731.408C1183.41 705.74 1106.58 554.281 1127.99 456.115C1149.41 357.949 1236.33 265.238 1358.37 290.906C1418.84 303.626 1497.96 292.957 1559.14 356.954C1621.42 422.101 1575.58 552.489 1564.78 602.009C1543.36 700.175 1427.47 757.076 1305.44 731.408Z" fill="#308FFF"/>
</g>
</g>
<defs>
<filter id="filter0_f_69_855" x="-326" y="-309" width="1981" height="1596" filterUnits="userSpaceOnUse" color-interpolation-filters="sRGB">
<feFlood flood-opacity="0" result="BackgroundImageFix"/>
<feBlend mode="normal" in="SourceGraphic" in2="BackgroundImageFix" result="shape"/>
<feGaussianBlur stdDeviation="206" result="effect1_foregroundBlur_69_855"/>
</filter>
<filter id="filter1_f_69_855" x="-53.6272" y="328.817" width="1087.66" height="787.441" filterUnits="userSpaceOnUse" color-interpolation-filters="sRGB">
<feFlood flood-opacity="0" result="BackgroundImageFix"/>
<feBlend mode="normal" in="SourceGraphic" in2="BackgroundImageFix" result="shape"/>
<feGaussianBlur stdDeviation="50" result="effect1_foregroundBlur_69_855"/>
</filter>
<filter id="filter2_f_69_855" x="-39.749" y="263.244" width="610.411" height="496.988" filterUnits="userSpaceOnUse" color-interpolation-filters="sRGB">
<feFlood flood-opacity="0" result="BackgroundImageFix"/>
<feBlend mode="normal" in="SourceGraphic" in2="BackgroundImageFix" result="shape"/>
<feGaussianBlur stdDeviation="2" result="effect1_foregroundBlur_69_855"/>
</filter>
<filter id="filter3_f_69_855" x="-111.163" y="253.645" width="727.683" height="641.139" filterUnits="userSpaceOnUse" color-interpolation-filters="sRGB">
<feFlood flood-opacity="0" result="BackgroundImageFix"/>
<feBlend mode="normal" in="SourceGraphic" in2="BackgroundImageFix" result="shape"/>
<feGaussianBlur stdDeviation="7" result="effect1_foregroundBlur_69_855"/>
</filter>
<filter id="filter4_f_69_855" x="-256.881" y="257.773" width="995.465" height="797.481" filterUnits="userSpaceOnUse" color-interpolation-filters="sRGB">
<feFlood flood-opacity="0" result="BackgroundImageFix"/>
<feBlend mode="normal" in="SourceGraphic" in2="BackgroundImageFix" result="shape"/>
<feGaussianBlur stdDeviation="10" result="effect1_foregroundBlur_69_855"/>
</filter>
<filter id="filter5_f_69_855" x="-467.589" y="238.647" width="1341.41" height="822.522" filterUnits="userSpaceOnUse" color-interpolation-filters="sRGB">
<feFlood flood-opacity="0" result="BackgroundImageFix"/>
<feBlend mode="normal" in="SourceGraphic" in2="BackgroundImageFix" result="shape"/>
<feGaussianBlur stdDeviation="27" result="effect1_foregroundBlur_69_855"/>
</filter>
<filter id="filter6_f_69_855" x="-140.16" y="282.577" width="1198.19" height="939.593" filterUnits="userSpaceOnUse" color-interpolation-filters="sRGB">
<feFlood flood-opacity="0" result="BackgroundImageFix"/>
<feBlend mode="normal" in="SourceGraphic" in2="BackgroundImageFix" result="shape"/>
<feGaussianBlur stdDeviation="67" result="effect1_foregroundBlur_69_855"/>
</filter>
<filter id="filter7_f_69_855" x="-196.566" y="315.735" width="937.57" height="792.949" filterUnits="userSpaceOnUse" color-interpolation-filters="sRGB">
<feFlood flood-opacity="0" result="BackgroundImageFix"/>
<feBlend mode="normal" in="SourceGraphic" in2="BackgroundImageFix" result="shape"/>
<feGaussianBlur stdDeviation="31" result="effect1_foregroundBlur_69_855"/>
</filter>
<filter id="filter8_f_69_855" x="28.1181" y="307.741" width="938.846" height="729.561" filterUnits="userSpaceOnUse" color-interpolation-filters="sRGB">
<feFlood flood-opacity="0" result="BackgroundImageFix"/>
<feBlend mode="normal" in="SourceGraphic" in2="BackgroundImageFix" result="shape"/>
<feGaussianBlur stdDeviation="34" result="effect1_foregroundBlur_69_855"/>
</filter>
<filter id="filter9_f_69_855" x="-24.0094" y="651.867" width="468.312" height="501.653" filterUnits="userSpaceOnUse" color-interpolation-filters="sRGB">
<feFlood flood-opacity="0" result="BackgroundImageFix"/>
<feBlend mode="normal" in="SourceGraphic" in2="BackgroundImageFix" result="shape"/>
<feGaussianBlur stdDeviation="2" result="effect1_foregroundBlur_69_855"/>
</filter>
<filter id="filter10_f_69_855" x="-34.2943" y="605.387" width="604.767" height="581.323" filterUnits="userSpaceOnUse" color-interpolation-filters="sRGB">
<feFlood flood-opacity="0" result="BackgroundImageFix"/>
<feBlend mode="normal" in="SourceGraphic" in2="BackgroundImageFix" result="shape"/>
<feGaussianBlur stdDeviation="7" result="effect1_foregroundBlur_69_855"/>
</filter>
<filter id="filter11_f_69_855" x="-4.50635" y="487.117" width="823.071" height="754.932" filterUnits="userSpaceOnUse" color-interpolation-filters="sRGB">
<feFlood flood-opacity="0" result="BackgroundImageFix"/>
<feBlend mode="normal" in="SourceGraphic" in2="BackgroundImageFix" result="shape"/>
<feGaussianBlur stdDeviation="10" result="effect1_foregroundBlur_69_855"/>
</filter>
<filter id="filter12_f_69_855" x="-2.90796" y="363.154" width="783.15" height="950.375" filterUnits="userSpaceOnUse" color-interpolation-filters="sRGB">
<feFlood flood-opacity="0" result="BackgroundImageFix"/>
<feBlend mode="normal" in="SourceGraphic" in2="BackgroundImageFix" result="shape"/>
<feGaussianBlur stdDeviation="27" result="effect1_foregroundBlur_69_855"/>
</filter>
<filter id="filter13_f_69_855" x="-56.7238" y="187.38" width="950.901" height="1087.63" filterUnits="userSpaceOnUse" color-interpolation-filters="sRGB">
<feFlood flood-opacity="0" result="BackgroundImageFix"/>
<feBlend mode="normal" in="SourceGraphic" in2="BackgroundImageFix" result="shape"/>
<feGaussianBlur stdDeviation="67" result="effect1_foregroundBlur_69_855"/>
</filter>
<filter id="filter14_f_69_855" x="28.1083" y="467.035" width="802.234" height="803.051" filterUnits="userSpaceOnUse" color-interpolation-filters="sRGB">
<feFlood flood-opacity="0" result="BackgroundImageFix"/>
<feBlend mode="normal" in="SourceGraphic" in2="BackgroundImageFix" result="shape"/>
<feGaussianBlur stdDeviation="31" result="effect1_foregroundBlur_69_855"/>
</filter>
<filter id="filter15_f_69_855" x="405.311" y="646.64" width="526.744" height="516.13" filterUnits="userSpaceOnUse" color-interpolation-filters="sRGB">
<feFlood flood-opacity="0" result="BackgroundImageFix"/>
<feBlend mode="normal" in="SourceGraphic" in2="BackgroundImageFix" result="shape"/>
<feGaussianBlur stdDeviation="2" result="effect1_foregroundBlur_69_855"/>
</filter>
<filter id="filter16_f_69_855" x="236.851" y="531.002" width="698.117" height="637.31" filterUnits="userSpaceOnUse" color-interpolation-filters="sRGB">
<feFlood flood-opacity="0" result="BackgroundImageFix"/>
<feBlend mode="normal" in="SourceGraphic" in2="BackgroundImageFix" result="shape"/>
<feGaussianBlur stdDeviation="7" result="effect1_foregroundBlur_69_855"/>
</filter>
<filter id="filter17_f_69_855" x="98.4875" y="364.922" width="855.409" height="802.952" filterUnits="userSpaceOnUse" color-interpolation-filters="sRGB">
<feFlood flood-opacity="0" result="BackgroundImageFix"/>
<feBlend mode="normal" in="SourceGraphic" in2="BackgroundImageFix" result="shape"/>
<feGaussianBlur stdDeviation="10" result="effect1_foregroundBlur_69_855"/>
</filter>
<filter id="filter18_f_69_855" x="12.004" y="443.889" width="979.667" height="739.486" filterUnits="userSpaceOnUse" color-interpolation-filters="sRGB">
<feFlood flood-opacity="0" result="BackgroundImageFix"/>
<feBlend mode="normal" in="SourceGraphic" in2="BackgroundImageFix" result="shape"/>
<feGaussianBlur stdDeviation="27" result="effect1_foregroundBlur_69_855"/>
</filter>
<filter id="filter19_f_69_855" x="-191.22" y="257.526" width="1199.57" height="982.97" filterUnits="userSpaceOnUse" color-interpolation-filters="sRGB">
<feFlood flood-opacity="0" result="BackgroundImageFix"/>
<feBlend mode="normal" in="SourceGraphic" in2="BackgroundImageFix" result="shape"/>
<feGaussianBlur stdDeviation="67" result="effect1_foregroundBlur_69_855"/>
</filter>
<filter id="filter20_f_69_855" x="142.264" y="344.985" width="820.546" height="782.465" filterUnits="userSpaceOnUse" color-interpolation-filters="sRGB">
<feFlood flood-opacity="0" result="BackgroundImageFix"/>
<feBlend mode="normal" in="SourceGraphic" in2="BackgroundImageFix" result="shape"/>
<feGaussianBlur stdDeviation="31" result="effect1_foregroundBlur_69_855"/>
</filter>
<filter id="filter21_f_69_855" x="70.7852" y="411.577" width="891.236" height="672.082" filterUnits="userSpaceOnUse" color-interpolation-filters="sRGB">
<feFlood flood-opacity="0" result="BackgroundImageFix"/>
<feBlend mode="normal" in="SourceGraphic" in2="BackgroundImageFix" result="shape"/>
<feGaussianBlur stdDeviation="42" result="effect1_foregroundBlur_69_855"/>
</filter>
<filter id="filter22_f_69_855" x="774.307" y="152.787" width="708.783" height="820.973" filterUnits="userSpaceOnUse" color-interpolation-filters="sRGB">
<feFlood flood-opacity="0" result="BackgroundImageFix"/>
<feBlend mode="normal" in="SourceGraphic" in2="BackgroundImageFix" result="shape"/>
<feGaussianBlur stdDeviation="6.58483" result="effect1_foregroundBlur_69_855"/>
</filter>
<filter id="filter23_f_69_855" x="743.568" y="97.5983" width="915.803" height="1009.15" filterUnits="userSpaceOnUse" color-interpolation-filters="sRGB">
<feFlood flood-opacity="0" result="BackgroundImageFix"/>
<feBlend mode="normal" in="SourceGraphic" in2="BackgroundImageFix" result="shape"/>
<feGaussianBlur stdDeviation="23.0469" result="effect1_foregroundBlur_69_855"/>
</filter>
<filter id="filter24_f_69_855" x="745.049" y="25.6009" width="1225.13" height="1298.54" filterUnits="userSpaceOnUse" color-interpolation-filters="sRGB">
<feFlood flood-opacity="0" result="BackgroundImageFix"/>
<feBlend mode="normal" in="SourceGraphic" in2="BackgroundImageFix" result="shape"/>
<feGaussianBlur stdDeviation="32.9241" result="effect1_foregroundBlur_69_855"/>
</filter>
<filter id="filter25_f_69_855" x="641.05" y="-181.086" width="1526.35" height="1514.6" filterUnits="userSpaceOnUse" color-interpolation-filters="sRGB">
<feFlood flood-opacity="0" result="BackgroundImageFix"/>
<feBlend mode="normal" in="SourceGraphic" in2="BackgroundImageFix" result="shape"/>
<feGaussianBlur stdDeviation="88.8952" result="effect1_foregroundBlur_69_855"/>
</filter>
<filter id="filter26_f_69_855" x="374.341" y="-527.484" width="2215.87" height="1936.11" filterUnits="userSpaceOnUse" color-interpolation-filters="sRGB">
<feFlood flood-opacity="0" result="BackgroundImageFix"/>
<feBlend mode="normal" in="SourceGraphic" in2="BackgroundImageFix" result="shape"/>
<feGaussianBlur stdDeviation="220.592" result="effect1_foregroundBlur_69_855"/>
</filter>
<filter id="filter27_f_69_855" x="880.512" y="122.85" width="482.747" height="607.624" filterUnits="userSpaceOnUse" color-interpolation-filters="sRGB">
<feFlood flood-opacity="0" result="BackgroundImageFix"/>
<feBlend mode="normal" in="SourceGraphic" in2="BackgroundImageFix" result="shape"/>
<feGaussianBlur stdDeviation="5.15916" result="effect1_foregroundBlur_69_855"/>
</filter>
<filter id="filter28_f_69_855" x="752.833" y="39.645" width="635.013" height="740.25" filterUnits="userSpaceOnUse" color-interpolation-filters="sRGB">
<feFlood flood-opacity="0" result="BackgroundImageFix"/>
<feBlend mode="normal" in="SourceGraphic" in2="BackgroundImageFix" result="shape"/>
<feGaussianBlur stdDeviation="18.0571" result="effect1_foregroundBlur_69_855"/>
</filter>
<filter id="filter29_f_69_855" x="619.007" y="-60.8824" width="779.913" height="941.343" filterUnits="userSpaceOnUse" color-interpolation-filters="sRGB">
<feFlood flood-opacity="0" result="BackgroundImageFix"/>
<feBlend mode="normal" in="SourceGraphic" in2="BackgroundImageFix" result="shape"/>
<feGaussianBlur stdDeviation="25.7958" result="effect1_foregroundBlur_69_855"/>
</filter>
<filter id="filter30_f_69_855" x="467.382" y="-85.3876" width="939.144" height="1133.32" filterUnits="userSpaceOnUse" color-interpolation-filters="sRGB">
<feFlood flood-opacity="0" result="BackgroundImageFix"/>
<feBlend mode="normal" in="SourceGraphic" in2="BackgroundImageFix" result="shape"/>
<feGaussianBlur stdDeviation="69.6486" result="effect1_foregroundBlur_69_855"/>
</filter>
<filter id="filter31_f_69_855" x="166.096" y="-239.323" width="1368.12" height="1573.91" filterUnits="userSpaceOnUse" color-interpolation-filters="sRGB">
<feFlood flood-opacity="0" result="BackgroundImageFix"/>
<feBlend mode="normal" in="SourceGraphic" in2="BackgroundImageFix" result="shape"/>
<feGaussianBlur stdDeviation="172.832" result="effect1_foregroundBlur_69_855"/>
</filter>
<filter id="filter32_f_69_855" x="433.581" y="-163.226" width="985.327" height="1095.77" filterUnits="userSpaceOnUse" color-interpolation-filters="sRGB">
<feFlood flood-opacity="0" result="BackgroundImageFix"/>
<feBlend mode="normal" in="SourceGraphic" in2="BackgroundImageFix" result="shape"/>
<feGaussianBlur stdDeviation="79.9669" result="effect1_foregroundBlur_69_855"/>
</filter>
<filter id="filter33_f_69_855" x="1154.87" y="516.016" width="362.693" height="299.821" filterUnits="userSpaceOnUse" color-interpolation-filters="sRGB">
<feFlood flood-opacity="0" result="BackgroundImageFix"/>
<feBlend mode="normal" in="SourceGraphic" in2="BackgroundImageFix" result="shape"/>
<feGaussianBlur stdDeviation="3.53048" result="effect1_foregroundBlur_69_855"/>
</filter>
<filter id="filter34_f_69_855" x="1120.96" y="427.219" width="444.045" height="405.72" filterUnits="userSpaceOnUse" color-interpolation-filters="sRGB">
<feFlood flood-opacity="0" result="BackgroundImageFix"/>
<feBlend mode="normal" in="SourceGraphic" in2="BackgroundImageFix" result="shape"/>
<feGaussianBlur stdDeviation="12.3567" result="effect1_foregroundBlur_69_855"/>
</filter>
<filter id="filter35_f_69_855" x="1061.19" y="264.346" width="571.118" height="562.177" filterUnits="userSpaceOnUse" color-interpolation-filters="sRGB">
<feFlood flood-opacity="0" result="BackgroundImageFix"/>
<feBlend mode="normal" in="SourceGraphic" in2="BackgroundImageFix" result="shape"/>
<feGaussianBlur stdDeviation="17.6524" result="effect1_foregroundBlur_69_855"/>
</filter>
<filter id="filter36_f_69_855" x="947.369" y="210.608" width="729.256" height="650.979" filterUnits="userSpaceOnUse" color-interpolation-filters="sRGB">
<feFlood flood-opacity="0" result="BackgroundImageFix"/>
<feBlend mode="normal" in="SourceGraphic" in2="BackgroundImageFix" result="shape"/>
<feGaussianBlur stdDeviation="47.6614" result="effect1_foregroundBlur_69_855"/>
</filter>
<filter id="filter37_f_69_855" x="754.422" y="9.85077" width="987.244" height="1000.79" filterUnits="userSpaceOnUse" color-interpolation-filters="sRGB">
<feFlood flood-opacity="0" result="BackgroundImageFix"/>
<feBlend mode="normal" in="SourceGraphic" in2="BackgroundImageFix" result="shape"/>
<feGaussianBlur stdDeviation="118.271" result="effect1_foregroundBlur_69_855"/>
</filter>
<filter id="filter38_f_69_855" x="1014.98" y="177.131" width="685.637" height="669.872" filterUnits="userSpaceOnUse" color-interpolation-filters="sRGB">
<feFlood flood-opacity="0" result="BackgroundImageFix"/>
<feBlend mode="normal" in="SourceGraphic" in2="BackgroundImageFix" result="shape"/>
<feGaussianBlur stdDeviation="54.7224" result="effect1_foregroundBlur_69_855"/>
</filter>
<linearGradient id="paint0_linear_69_855" x1="490.205" y1="277.894" x2="490.205" y2="1167.18" gradientUnits="userSpaceOnUse">
<stop stop-color="#0239FE"/>
<stop offset="1" stop-color="#0285FE"/>
</linearGradient>
<linearGradient id="paint1_linear_69_855" x1="269.741" y1="575.926" x2="-93.4935" y2="827.612" gradientUnits="userSpaceOnUse">
<stop stop-color="#C4C4C4"/>
<stop offset="1" stop-color="#C4C4C4" stop-opacity="0"/>
</linearGradient>
<linearGradient id="paint2_linear_69_855" x1="294.446" y1="276.891" x2="263.964" y2="898.643" gradientUnits="userSpaceOnUse">
<stop stop-color="#C4C4C4"/>
<stop offset="1" stop-color="#C4C4C4" stop-opacity="0"/>
</linearGradient>
<linearGradient id="paint3_linear_69_855" x1="-30.4835" y1="522.4" x2="563.434" y2="570.508" gradientUnits="userSpaceOnUse">
<stop stop-color="#0239FE"/>
<stop offset="1" stop-color="#0285FE"/>
</linearGradient>
<linearGradient id="paint4_linear_69_855" x1="-29.8742" y1="493.128" x2="563.801" y2="541.216" gradientUnits="userSpaceOnUse">
<stop stop-color="#0239FE"/>
<stop offset="1" stop-color="#0285FE"/>
</linearGradient>
<linearGradient id="paint5_linear_69_855" x1="-66.8645" y1="553.697" x2="598.53" y2="607.594" gradientUnits="userSpaceOnUse">
<stop stop-color="#0239FE"/>
<stop offset="1" stop-color="#0285FE"/>
</linearGradient>
<linearGradient id="paint6_linear_69_855" x1="-123.532" y1="634.38" x2="715.183" y2="702.316" gradientUnits="userSpaceOnUse">
<stop stop-color="#0239FE"/>
<stop offset="1" stop-color="#0285FE"/>
</linearGradient>
<linearGradient id="paint7_linear_69_855" x1="-74.6227" y1="649.469" x2="819.874" y2="721.924" gradientUnits="userSpaceOnUse">
<stop stop-color="#0239FE"/>
<stop offset="1" stop-color="#0285FE"/>
</linearGradient>
<linearGradient id="paint8_linear_69_855" x1="-0.28838" y1="722.022" x2="924.092" y2="796.897" gradientUnits="userSpaceOnUse">
<stop stop-color="#0239FE"/>
<stop offset="1" stop-color="#0285FE"/>
</linearGradient>
<linearGradient id="paint9_linear_69_855" x1="-129.424" y1="682.371" x2="679.408" y2="747.887" gradientUnits="userSpaceOnUse">
<stop stop-color="#0239FE"/>
<stop offset="1" stop-color="#0285FE"/>
</linearGradient>
<linearGradient id="paint10_linear_69_855" x1="150.745" y1="685.225" x2="213.664" y2="1110.73" gradientUnits="userSpaceOnUse">
<stop stop-color="#C4C4C4"/>
<stop offset="0.943414" stop-color="#C4C4C4" stop-opacity="0"/>
</linearGradient>
<linearGradient id="paint11_linear_69_855" x1="111.431" y1="901.269" x2="609.721" y2="921.081" gradientUnits="userSpaceOnUse">
<stop stop-color="#C4C4C4"/>
<stop offset="1" stop-color="#C4C4C4" stop-opacity="0"/>
</linearGradient>
<linearGradient id="paint12_linear_69_855" x1="778.942" y1="1140.46" x2="188.801" y2="508.61" gradientUnits="userSpaceOnUse">
<stop stop-color="#C4C4C4"/>
<stop offset="1" stop-color="#C4C4C4" stop-opacity="0"/>
</linearGradient>
<linearGradient id="paint13_linear_69_855" x1="171.132" y1="744.259" x2="868.237" y2="800.725" gradientUnits="userSpaceOnUse">
<stop offset="0.213542" stop-color="#0073FB"/>
<stop offset="0.567708" stop-color="#65FFED"/>
<stop offset="0.9375" stop-color="#070059"/>
</linearGradient>
<linearGradient id="paint14_linear_69_855" x1="943.401" y1="242.141" x2="706.846" y2="850.704" gradientUnits="userSpaceOnUse">
<stop stop-color="#C4C4C4"/>
<stop offset="0.943414" stop-color="#C4C4C4" stop-opacity="0"/>
</linearGradient>
<linearGradient id="paint15_linear_69_855" x1="1009.7" y1="470.663" x2="1653.03" y2="884.671" gradientUnits="userSpaceOnUse">
<stop stop-color="#C4C4C4"/>
<stop offset="1" stop-color="#C4C4C4" stop-opacity="0"/>
</linearGradient>
<linearGradient id="paint16_linear_69_855" x1="1380.44" y1="465.509" x2="804.298" y2="309.997" gradientUnits="userSpaceOnUse">
<stop stop-color="#C4C4C4"/>
<stop offset="1" stop-color="#C4C4C4" stop-opacity="0"/>
</linearGradient>
<linearGradient id="paint17_linear_69_855" x1="1360.37" y1="690.75" x2="1519.37" y2="194.805" gradientUnits="userSpaceOnUse">
<stop stop-color="#C4C4C4"/>
<stop offset="1" stop-color="#C4C4C4" stop-opacity="0"/>
</linearGradient>
</defs>
</svg>
