<svg width="402" height="893" viewBox="0 0 402 893" fill="none" xmlns="http://www.w3.org/2000/svg">
<g opacity="0.6" filter="url(#filter0_f_327_39)">
<ellipse cx="0.620758" cy="470.127" rx="358.349" ry="397.151" fill="#308FFF" fill-opacity="0.9"/>
</g>
<g filter="url(#filter1_f_327_39)">
<ellipse cx="300.265" cy="277.006" rx="300.265" ry="277.006" transform="matrix(0.0487085 -0.998813 0.99107 0.133339 -396.504 973.384)" fill="url(#paint0_linear_327_39)"/>
</g>
<mask id="mask0_327_39" style="mask-type:alpha" maskUnits="userSpaceOnUse" x="-641" y="118" width="960" height="917">
<path d="M318.701 1034.77L199.412 183.787L-280.556 118.09L-443.708 150.005L-640.828 580.228L-575.601 949.235L-80.3273 1015.87L318.701 1034.77Z" fill="url(#paint1_linear_327_39)"/>
</mask>
<g mask="url(#mask0_327_39)">
</g>
<mask id="mask1_327_39" style="mask-type:alpha" maskUnits="userSpaceOnUse" x="-625" y="60" width="904" height="1018">
<path d="M-624.688 961.709C-605.421 574.379 -580.796 80.281 -580.758 60.867L278.145 176.424L234.214 1077.27L-624.688 961.709Z" fill="url(#paint2_linear_327_39)"/>
</mask>
<g mask="url(#mask1_327_39)">
<g filter="url(#filter2_f_327_39)">
<path d="M-211.656 260.906C-69.4653 312.58 41.284 499.561 33.7609 653.828C26.2379 808.096 -54.8647 965.05 -194.517 946.261C-263.722 936.95 -360.885 1093.12 -439.359 1005.23C-519.244 915.769 -561.294 719.256 -557.499 641.436C-549.976 487.168 -376.376 201.043 -211.656 260.906Z" fill="url(#paint3_linear_327_39)"/>
</g>
<g filter="url(#filter3_f_327_39)">
<path d="M-166.263 329.855C-15.8933 350.086 103.865 566.261 96.5101 717.09C89.1548 867.918 2.63398 1020.4 -147.735 1000.17C-222.251 990.145 -315.533 1035.53 -400.401 948.514C-486.793 859.931 -670.851 569.876 -667.14 493.79C-661.062 369.145 -455.385 241.829 -288.969 272.813C-254.012 279.321 -192.366 326.343 -166.263 329.855Z" fill="url(#paint4_linear_327_39)"/>
</g>
<g filter="url(#filter4_f_327_39)">
<path d="M-110.674 397.934C44.7192 418.841 168.582 640.13 161.059 794.397C153.535 948.665 64.2085 1104.51 -91.1843 1083.61C-168.189 1073.25 -264.558 1119.54 -352.3 1030.41C-441.618 939.678 -410.181 732.125 -406.385 654.305C-398.862 500.037 -266.066 377.027 -110.674 397.934Z" fill="url(#paint5_linear_327_39)"/>
</g>
<g filter="url(#filter5_f_327_39)">
<path d="M-226.354 357.677C-90.3852 375.971 16.7553 595.01 9.23223 749.277C1.70916 903.545 -77.4686 1060.76 -213.437 1042.46C-280.816 1033.4 -364.628 1063.43 -440.934 975.836C-518.611 886.671 -489.82 678.762 -486.025 600.941C-478.502 446.674 -362.323 339.384 -226.354 357.677Z" fill="url(#paint6_linear_327_39)"/>
</g>
</g>
<g filter="url(#filter6_f_327_39)">
<path d="M-349.35 859.935C-358.439 811.186 -336.903 701.525 -309.032 586.461L-301.579 433.629C-295.096 300.681 -169.528 353.844 -67.4049 445.125C34.7186 536.405 32.2199 532.317 23.2377 661.177C14.2556 790.038 69.0063 732.369 129.942 796.847C190.877 861.325 62.5482 743.193 -14.003 832.946C-90.5542 922.7 -44.0629 948.529 -149.295 851.828C-254.527 755.126 -252.172 799.222 -257.825 845.983C-263.478 892.744 -231.312 897.079 -236.783 940.116C-242.255 983.153 -255.358 961.38 -298.435 931.821C-341.512 902.263 -340.26 908.683 -349.35 859.935Z" fill="#120ECF"/>
</g>
<mask id="mask2_327_39" style="mask-type:alpha" maskUnits="userSpaceOnUse" x="-516" y="50" width="561" height="1375">
<path d="M-24.4292 50.9047L-515.75 326.293L-490.356 981.466L-449.399 1200.57L-166.456 1424.1L44.7791 1286.21L17.9374 599.547L-24.4292 50.9047Z" fill="url(#paint7_linear_327_39)"/>
</mask>
<g mask="url(#mask2_327_39)">
<mask id="mask3_327_39" style="mask-type:alpha" maskUnits="userSpaceOnUse" x="-508" y="122" width="546" height="1281">
<path d="M37.334 1348.87C-196.182 1373.52 -451.064 1400.28 -462.644 1402.79L-507.453 176.298L-7.475 122.378L37.334 1348.87Z" fill="url(#paint8_linear_327_39)"/>
</mask>
<g mask="url(#mask3_327_39)">
<g filter="url(#filter7_f_327_39)">
<path d="M-400.458 877.189C-388.761 675.764 -292.169 499.545 -199.183 489.517C-106.198 479.49 -1.72091 569.816 5.84765 763.435C9.59824 859.383 115.764 971.795 73.9149 1090.78C31.3144 1211.91 -138.964 1218.73 -185.871 1223.79C-278.857 1233.81 -414.008 1110.53 -400.458 877.189Z" fill="#02EFFE"/>
</g>
<g filter="url(#filter8_f_327_39)">
<path d="M-378.932 822.438C-387.081 613.961 -274.876 406.676 -183.964 396.871C-93.0511 387.067 9.48836 485.399 17.6377 693.875C21.6761 797.186 61.2751 918.882 20.8006 1046.51C-20.401 1176.42 -206.526 1257.68 -252.387 1262.63C-343.299 1272.43 -370.782 1030.91 -378.932 822.438Z" fill="#02EFFE"/>
</g>
<g filter="url(#filter9_f_327_39)">
<path d="M-346.397 722.494C-354.818 507.053 -239.534 308.367 -146.549 298.339C-53.5632 288.311 51.3595 390.04 59.7811 605.482C63.9544 712.243 -55.6107 885.218 -96.9571 1017.05C-139.046 1151.26 -267.015 1135.57 -313.921 1140.63C-406.907 1150.66 -337.975 937.936 -346.397 722.494Z" fill="#02EFFE"/>
</g>
<g filter="url(#filter10_f_327_39)">
<path d="M-354.849 886.132C-362.218 697.62 -246.028 522.118 -153.042 512.09C-60.0567 502.062 44.3159 589.72 51.6848 778.231C55.3365 871.648 84.5048 982.405 42.5385 1098.39C-0.181719 1216.45 -128.007 1204.44 -174.913 1209.5C-267.899 1219.52 -347.48 1074.64 -354.849 886.132Z" fill="#02EFFE"/>
</g>
</g>
</g>
<mask id="mask4_327_39" style="mask-type:alpha" maskUnits="userSpaceOnUse" x="-637" y="-107" width="1094" height="1572">
<path d="M253.7 -106.141C319.388 263.296 451.821 1006.65 456.048 1024.58L-434.559 1464.28L-636.907 333.565L253.7 -106.141Z" fill="url(#paint9_linear_327_39)"/>
</mask>
<g mask="url(#mask4_327_39)">
<path d="M72.9303 1160.02C-26.187 1172 -135.638 1119.07 -156.855 1000.51C-178.071 881.952 -165.252 706.292 -57.4789 653.083C-4.07214 626.715 -19.9486 548.299 54.0684 576.011C129.415 604.22 143.664 773.169 154.367 832.975C175.583 951.532 172.048 1148.04 72.9303 1160.02Z" fill="#308FFF"/>
<g filter="url(#filter11_f_327_39)">
<path d="M60.0432 1158.81C-106.722 1149.81 -132.853 1126.85 -151.09 1024.94C-169.326 923.032 -152.614 769.229 -44.8848 716.041C8.5002 689.684 -7.16491 620.393 65.3425 639.826C139.152 659.609 149.863 808.744 159.062 860.152C177.299 962.059 143.626 1170.05 60.0432 1158.81Z" fill="#308FFF"/>
</g>
<g filter="url(#filter12_f_327_39)">
<path d="M69.0531 1150.87C-123.364 1179.02 -229.423 1044.97 -251.907 919.331C-274.391 793.691 -192.1 674.359 -71.3571 614.746C-11.523 585.205 -69.1878 505.973 13.0966 533.442C96.8594 561.404 128.542 760.527 139.885 823.906C162.368 949.546 189.796 1091.26 69.0531 1150.87Z" fill="#308FFF"/>
</g>
<g filter="url(#filter13_f_327_39)">
<path d="M52.4554 1142.88C-116.942 1172.03 -307.065 1074.49 -333.379 927.446C-359.693 780.401 -260.191 593.261 -115.383 521.768C-43.6242 486.339 -92.6622 336.127 5.69772 367.26C105.825 398.953 121.98 609.247 135.255 683.424C161.569 830.469 221.853 1113.73 52.4554 1142.88Z" fill="#308FFF"/>
</g>
<g filter="url(#filter14_f_327_39)">
<path d="M-74.8932 1127.19C-333.988 1092.33 -338.618 1082.76 -364.346 938.991C-390.073 795.224 -330.273 578.784 -174.353 501.804C-97.0874 463.657 -73.5525 479.999 31.0577 506.27C137.547 533.013 153.284 778.504 166.263 851.027C191.991 994.795 75.3607 1147.4 -74.8932 1127.19Z" fill="#308FFF"/>
</g>
<g filter="url(#filter15_f_327_39)">
<path d="M-79.3752 1080.74C-240.504 1160.29 -413.895 1035 -440.209 887.955C-466.524 740.91 -410.78 540.38 -249.651 460.829C-169.804 421.407 -35.4787 349.106 72.4904 375.495C182.399 402.358 100.164 750.106 113.439 824.283C139.753 971.329 81.7535 1001.19 -79.3752 1080.74Z" fill="#308FFF"/>
</g>
<g filter="url(#filter16_f_327_39)">
<path d="M45.9999 1044.28C-94.9877 1113.89 -251.039 980.038 -277.354 832.993C-303.668 685.948 -258.448 490.614 -117.461 421.006C-47.5945 386.512 -102.843 371.219 -6.73188 403.462C91.1057 436.285 107.782 646.322 121.056 720.499C147.371 867.544 186.988 974.672 45.9999 1044.28Z" fill="#308FFF"/>
</g>
</g>
<g opacity="0.6" filter="url(#filter17_f_327_39)">
<path d="M-116.407 476.892C2.83625 492.935 131.738 690.101 126.825 790.844C121.912 891.586 199.325 1132.85 -85.689 891.943C-204.932 875.9 -355.8 1052.34 -304.994 732.747C-300.081 632.004 -181.153 759.609 -116.407 476.892Z" fill="url(#paint10_linear_327_39)"/>
</g>
<mask id="mask5_327_39" style="mask-type:alpha" maskUnits="userSpaceOnUse" x="-314" y="-722" width="1174" height="2200">
<path d="M859.134 -277.52L124.704 -721.234L-266.82 332.987L-313.872 671.806L26.0006 1392.46L372.142 1477.37L655.18 543.221L859.134 -277.52Z" fill="url(#paint11_linear_327_39)"/>
</mask>
<g mask="url(#mask5_327_39)">
<mask id="mask6_327_39" style="mask-type:alpha" maskUnits="userSpaceOnUse" x="-220" y="-803" width="1264" height="2328">
<path d="M509.923 1524.45C186.612 1263.03 -202.661 873.103 -219.289 861.822L290.446 -802.768L1043.06 -312.09L509.923 1524.45Z" fill="url(#paint12_linear_327_39)"/>
</mask>
<g mask="url(#mask6_327_39)">
<path d="M94.0339 351.044C149.395 168.33 311.808 108.078 415.686 191.785C519.564 275.493 633.476 459.307 574.078 655.344C544.644 752.49 578.345 926.399 491.646 1000.13C403.389 1075.19 269.807 934.307 217.405 892.081C113.527 808.374 38.6732 533.758 94.0339 351.044Z" fill="#308FFF"/>
<g filter="url(#filter18_f_327_39)">
<path d="M102.268 360.402C161.641 164.445 294.089 96.6922 374.736 161.68C455.384 226.668 538.818 385.885 479.445 581.842C450.023 678.949 470.307 841.986 395.19 924.994C318.724 1009.49 216.822 894.153 176.139 861.37C95.4917 796.382 42.8948 556.359 102.268 360.402Z" fill="#308FFF"/>
</g>
<g filter="url(#filter19_f_327_39)">
<path d="M104.065 354.471C170.611 134.842 329.313 67.1664 428.895 147.412C528.477 227.658 634.054 415.831 567.509 635.461C534.532 744.298 572.927 939.652 484.158 1029C393.795 1119.95 258.622 973.787 208.388 933.306C108.806 853.06 37.5198 574.101 104.065 354.471Z" fill="#308FFF"/>
</g>
<g filter="url(#filter20_f_327_39)">
<path d="M144.298 355.248C253.461 105.845 464.295 -3.71255 593.134 100.109C721.972 203.93 819.553 453.797 739.745 717.199C700.196 847.728 789.776 1128.68 678.63 1232.06C565.487 1337.29 334.913 1132.03 269.92 1079.66C141.081 975.836 17.8397 644.169 144.298 355.248Z" fill="#308FFF"/>
</g>
<g filter="url(#filter21_f_327_39)">
<path d="M198.472 310.534C284.405 26.9189 530.517 -103.735 656.484 -2.22808C782.45 99.2789 873.727 357.205 787.794 640.82C745.21 781.365 741.579 990.752 628.257 1107.18C512.9 1225.71 226.595 1098.12 163.051 1046.91C37.084 945.406 112.54 594.149 198.472 310.534Z" fill="#308FFF"/>
</g>
<g filter="url(#filter22_f_327_39)">
<path d="M288.336 220.411C377.139 -72.6787 623.371 -188.183 752.209 -84.3617C881.048 19.4598 973.929 284.839 885.126 577.929C841.12 723.169 601.112 799.575 484.669 920.431C366.135 1043.46 202.517 861.918 137.524 809.545C8.68542 705.723 199.532 513.501 288.336 220.411Z" fill="#308FFF"/>
</g>
</g>
</g>
<mask id="mask7_327_39" style="mask-type:alpha" maskUnits="userSpaceOnUse" x="-113" y="-319" width="736" height="1562">
<path d="M125.214 -318.308C338.894 -204.286 611.466 -58.7611 622.363 -54.4742L384.376 1242.4L-112.773 978.565L125.214 -318.308Z" fill="url(#paint13_linear_327_39)"/>
</mask>
<g mask="url(#mask7_327_39)">
<path d="M424.29 503.074C397.448 649.345 298.315 731.692 229.673 695.264C161.031 658.836 81.8164 551.821 110.615 394.885C124.887 317.116 96.3293 198.338 147.467 124.082C199.524 48.4924 289.218 119.563 323.845 137.939C392.487 174.366 451.132 356.804 424.29 503.074Z" fill="#02EFFE"/>
<g filter="url(#filter23_f_327_39)">
<path d="M418.733 498.2C389.946 655.072 303.531 732.414 244.528 701.102C185.526 669.79 118.957 569.512 147.744 412.64C162.009 334.903 138.354 218.769 184.685 142.003C231.848 63.8585 308.397 127.943 338.161 143.738C397.163 175.05 447.52 341.329 418.733 498.2Z" fill="#02EFFE"/>
</g>
<g filter="url(#filter24_f_327_39)">
<path d="M417.86 502.952C385.595 678.775 281.364 761.546 208.622 722.942C135.879 684.338 52.5904 567.341 84.8553 391.518C100.844 304.39 62.9626 168.194 118.183 83.9015C174.395 -1.90478 275.363 77.9726 312.059 97.4465C384.801 136.051 450.124 327.13 417.86 502.952Z" fill="#02EFFE"/>
</g>
<g filter="url(#filter25_f_327_39)">
<path d="M405.521 518.672C347.842 726.28 220.498 856.022 135.362 810.84C50.2257 765.659 -21.5922 606.638 17.1031 395.774C36.2785 291.28 -31.8601 107.71 33.3178 6.06265C99.6666 -97.4111 210.508 -7.05339 253.455 15.7383C338.591 60.9194 472.338 278.17 405.521 518.672Z" fill="#02EFFE"/>
</g>
<g filter="url(#filter26_f_327_39)">
<path d="M357.644 573.525C315.98 800.571 170.421 937.82 87.1831 893.647C3.94507 849.473 -64.2695 683.085 -22.6048 456.04C-1.95784 343.528 -8.65537 190.059 57.3256 78.3827C124.492 -35.2997 232.34 55.8895 274.33 78.173C357.568 122.347 399.309 346.48 357.644 573.525Z" fill="#02EFFE"/>
</g>
<g filter="url(#filter27_f_327_39)">
<path d="M308.203 644.26C265.146 878.89 115.888 1021.34 30.7523 976.162C-54.3837 930.981 -123.923 759.541 -80.8661 524.911C-59.5294 408.64 -66.1138 250.223 1.63187 134.582C70.5946 16.8648 180.842 110.461 223.789 133.253C308.925 178.434 351.259 409.63 308.203 644.26Z" fill="#02EFFE"/>
</g>
<g filter="url(#filter28_f_327_39)">
<path d="M354.126 474.971C316.451 680.273 171.827 797.476 86.691 752.295C1.55499 707.114 -70.7963 550.999 -33.1217 345.697C-14.4521 243.96 -14.4303 108.414 50.1466 10.0415C115.884 -90.0986 226.864 -0.498898 269.811 22.2928C354.947 67.4739 391.8 269.669 354.126 474.971Z" fill="#02EFFE"/>
</g>
</g>
<mask id="mask8_327_39" style="mask-type:alpha" maskUnits="userSpaceOnUse" x="-58" y="-99" width="879" height="1123">
<path d="M820.988 174.791C768.616 570.875 711.352 1003.16 709.544 1023.16L-57.8405 749.521L53.6038 -98.849L820.988 174.791Z" fill="url(#paint14_linear_327_39)"/>
</mask>
<g mask="url(#mask8_327_39)">
<path d="M390.016 802.037C336.159 783.221 302.809 676.567 313.507 595.133C324.204 513.699 360.044 414.448 417.828 434.636C446.463 444.64 488.382 402.35 517.076 454.788C546.285 508.169 523.82 616.484 518.424 657.563C507.726 738.998 443.873 820.853 390.016 802.037Z" fill="#308FFF"/>
<g filter="url(#filter29_f_327_39)">
<path d="M391.577 795.288C333.817 775.108 301.743 690.146 310.048 626.923C318.353 563.7 351.045 488.345 408.805 508.525C437.428 518.525 477.95 486.76 507.821 530.124C538.229 574.268 519.03 657.746 514.84 689.639C506.535 752.861 449.338 815.467 391.577 795.288Z" fill="#308FFF"/>
</g>
<g filter="url(#filter30_f_327_39)">
<path d="M389.829 794.676C325.091 772.059 290.198 668.794 300.453 590.728C310.708 512.661 348.591 418.746 413.33 441.364C445.411 452.572 492.44 404.692 525.449 456.884C559.05 510.013 535.373 620.007 530.2 659.388C519.945 737.455 454.568 817.294 389.829 794.676Z" fill="#308FFF"/>
</g>
<g filter="url(#filter31_f_327_39)">
<path d="M385.682 766.558C308.534 717.465 257.03 582.405 270.298 481.403C283.566 380.401 338.478 285.385 416.118 312.511C454.593 325.952 518.514 233.151 557.618 299.418C597.425 366.875 568.582 549.736 561.889 600.686C548.621 701.688 475.053 823.43 385.682 766.558Z" fill="#308FFF"/>
</g>
<g filter="url(#filter32_f_327_39)">
<path d="M368.109 733.645C284.51 704.439 223.664 547.077 236.636 448.327C249.608 349.577 307.313 258.083 390.912 287.29C432.339 301.763 487.59 281.65 530.349 348.021C573.877 415.585 571.411 628.879 564.868 678.693C551.895 777.444 451.708 762.852 368.109 733.645Z" fill="#308FFF"/>
</g>
<g filter="url(#filter33_f_327_39)">
<path d="M334.779 680.775C248.387 650.592 191.497 491.51 204.765 390.508C218.033 289.506 277.517 196.088 363.908 226.27C406.72 241.227 452.693 400.201 496.949 468.268C542 537.558 512.131 671.199 505.438 722.15C492.17 823.152 421.17 710.957 334.779 680.775Z" fill="#308FFF"/>
</g>
<g filter="url(#filter34_f_327_39)">
<path d="M397.648 719.538C322.055 693.128 274.462 537.293 287.73 436.291C300.998 335.289 354.839 239.9 430.432 266.31C467.892 279.397 516.904 268.421 554.803 334.266C593.382 401.295 564.985 535.45 558.292 586.401C545.024 687.403 473.241 745.947 397.648 719.538Z" fill="#308FFF"/>
</g>
</g>
<defs>
<filter id="filter0_f_327_39" x="-769.728" y="-339.024" width="1540.7" height="1618.3" filterUnits="userSpaceOnUse" color-interpolation-filters="sRGB">
<feFlood flood-opacity="0" result="BackgroundImageFix"/>
<feBlend mode="normal" in="SourceGraphic" in2="BackgroundImageFix" result="shape"/>
<feGaussianBlur stdDeviation="206" result="effect1_foregroundBlur_327_39"/>
</filter>
<filter id="filter1_f_327_39" x="-482.275" y="308.205" width="749.858" height="804.412" filterUnits="userSpaceOnUse" color-interpolation-filters="sRGB">
<feFlood flood-opacity="0" result="BackgroundImageFix"/>
<feBlend mode="normal" in="SourceGraphic" in2="BackgroundImageFix" result="shape"/>
<feGaussianBlur stdDeviation="50" result="effect1_foregroundBlur_327_39"/>
</filter>
<filter id="filter2_f_327_39" x="-577.735" y="232.797" width="631.858" height="819.364" filterUnits="userSpaceOnUse" color-interpolation-filters="sRGB">
<feFlood flood-opacity="0" result="BackgroundImageFix"/>
<feBlend mode="normal" in="SourceGraphic" in2="BackgroundImageFix" result="shape"/>
<feGaussianBlur stdDeviation="10" result="effect1_foregroundBlur_327_39"/>
</filter>
<filter id="filter3_f_327_39" x="-721.196" y="214.101" width="872.027" height="843.164" filterUnits="userSpaceOnUse" color-interpolation-filters="sRGB">
<feFlood flood-opacity="0" result="BackgroundImageFix"/>
<feBlend mode="normal" in="SourceGraphic" in2="BackgroundImageFix" result="shape"/>
<feGaussianBlur stdDeviation="27" result="effect1_foregroundBlur_327_39"/>
</filter>
<filter id="filter4_f_327_39" x="-548.816" y="261.611" width="844.2" height="958.995" filterUnits="userSpaceOnUse" color-interpolation-filters="sRGB">
<feFlood flood-opacity="0" result="BackgroundImageFix"/>
<feBlend mode="normal" in="SourceGraphic" in2="BackgroundImageFix" result="shape"/>
<feGaussianBlur stdDeviation="67" result="effect1_foregroundBlur_327_39"/>
</filter>
<filter id="filter5_f_327_39" x="-556.356" y="293.647" width="627.962" height="812.274" filterUnits="userSpaceOnUse" color-interpolation-filters="sRGB">
<feFlood flood-opacity="0" result="BackgroundImageFix"/>
<feBlend mode="normal" in="SourceGraphic" in2="BackgroundImageFix" result="shape"/>
<feGaussianBlur stdDeviation="31" result="effect1_foregroundBlur_327_39"/>
</filter>
<filter id="filter6_f_327_39" x="-419.46" y="285.595" width="633.318" height="746.708" filterUnits="userSpaceOnUse" color-interpolation-filters="sRGB">
<feFlood flood-opacity="0" result="BackgroundImageFix"/>
<feBlend mode="normal" in="SourceGraphic" in2="BackgroundImageFix" result="shape"/>
<feGaussianBlur stdDeviation="34" result="effect1_foregroundBlur_327_39"/>
</filter>
<filter id="filter7_f_327_39" x="-421.403" y="468.766" width="525.069" height="775.586" filterUnits="userSpaceOnUse" color-interpolation-filters="sRGB">
<feFlood flood-opacity="0" result="BackgroundImageFix"/>
<feBlend mode="normal" in="SourceGraphic" in2="BackgroundImageFix" result="shape"/>
<feGaussianBlur stdDeviation="10" result="effect1_foregroundBlur_327_39"/>
</filter>
<filter id="filter8_f_327_39" x="-433.351" y="342.205" width="526.218" height="974.71" filterUnits="userSpaceOnUse" color-interpolation-filters="sRGB">
<feFlood flood-opacity="0" result="BackgroundImageFix"/>
<feBlend mode="normal" in="SourceGraphic" in2="BackgroundImageFix" result="shape"/>
<feGaussianBlur stdDeviation="27" result="effect1_foregroundBlur_327_39"/>
</filter>
<filter id="filter9_f_327_39" x="-497.132" y="163.664" width="691.019" height="1111.31" filterUnits="userSpaceOnUse" color-interpolation-filters="sRGB">
<feFlood flood-opacity="0" result="BackgroundImageFix"/>
<feBlend mode="normal" in="SourceGraphic" in2="BackgroundImageFix" result="shape"/>
<feGaussianBlur stdDeviation="67" result="effect1_foregroundBlur_327_39"/>
</filter>
<filter id="filter10_f_327_39" x="-417.183" y="449.318" width="544.128" height="822.668" filterUnits="userSpaceOnUse" color-interpolation-filters="sRGB">
<feFlood flood-opacity="0" result="BackgroundImageFix"/>
<feBlend mode="normal" in="SourceGraphic" in2="BackgroundImageFix" result="shape"/>
<feGaussianBlur stdDeviation="31" result="effect1_foregroundBlur_327_39"/>
</filter>
<filter id="filter11_f_327_39" x="-161.455" y="632.436" width="329.333" height="530.809" filterUnits="userSpaceOnUse" color-interpolation-filters="sRGB">
<feFlood flood-opacity="0" result="BackgroundImageFix"/>
<feBlend mode="normal" in="SourceGraphic" in2="BackgroundImageFix" result="shape"/>
<feGaussianBlur stdDeviation="2" result="effect1_foregroundBlur_327_39"/>
</filter>
<filter id="filter12_f_327_39" x="-269.612" y="513.746" width="443.1" height="654.913" filterUnits="userSpaceOnUse" color-interpolation-filters="sRGB">
<feFlood flood-opacity="0" result="BackgroundImageFix"/>
<feBlend mode="normal" in="SourceGraphic" in2="BackgroundImageFix" result="shape"/>
<feGaussianBlur stdDeviation="7" result="effect1_foregroundBlur_327_39"/>
</filter>
<filter id="filter13_f_327_39" x="-357.604" y="343.041" width="545.1" height="824.993" filterUnits="userSpaceOnUse" color-interpolation-filters="sRGB">
<feFlood flood-opacity="0" result="BackgroundImageFix"/>
<feBlend mode="normal" in="SourceGraphic" in2="BackgroundImageFix" result="shape"/>
<feGaussianBlur stdDeviation="10" result="effect1_foregroundBlur_327_39"/>
</filter>
<filter id="filter14_f_327_39" x="-424.114" y="425.272" width="647.949" height="757.728" filterUnits="userSpaceOnUse" color-interpolation-filters="sRGB">
<feFlood flood-opacity="0" result="BackgroundImageFix"/>
<feBlend mode="normal" in="SourceGraphic" in2="BackgroundImageFix" result="shape"/>
<feGaussianBlur stdDeviation="27" result="effect1_foregroundBlur_327_39"/>
</filter>
<filter id="filter15_f_327_39" x="-580.445" y="235.836" width="845.056" height="1003.62" filterUnits="userSpaceOnUse" color-interpolation-filters="sRGB">
<feFlood flood-opacity="0" result="BackgroundImageFix"/>
<feBlend mode="normal" in="SourceGraphic" in2="BackgroundImageFix" result="shape"/>
<feGaussianBlur stdDeviation="67" result="effect1_foregroundBlur_327_39"/>
</filter>
<filter id="filter16_f_327_39" x="-346.47" y="323.742" width="555.472" height="801.488" filterUnits="userSpaceOnUse" color-interpolation-filters="sRGB">
<feFlood flood-opacity="0" result="BackgroundImageFix"/>
<feBlend mode="normal" in="SourceGraphic" in2="BackgroundImageFix" result="shape"/>
<feGaussianBlur stdDeviation="31" result="effect1_foregroundBlur_327_39"/>
</filter>
<filter id="filter17_f_327_39" x="-399.119" y="392.892" width="616.004" height="686.645" filterUnits="userSpaceOnUse" color-interpolation-filters="sRGB">
<feFlood flood-opacity="0" result="BackgroundImageFix"/>
<feBlend mode="normal" in="SourceGraphic" in2="BackgroundImageFix" result="shape"/>
<feGaussianBlur stdDeviation="42" result="effect1_foregroundBlur_327_39"/>
</filter>
<filter id="filter18_f_327_39" x="63.628" y="124.581" width="449.075" height="843.929" filterUnits="userSpaceOnUse" color-interpolation-filters="sRGB">
<feFlood flood-opacity="0" result="BackgroundImageFix"/>
<feBlend mode="normal" in="SourceGraphic" in2="BackgroundImageFix" result="shape"/>
<feGaussianBlur stdDeviation="6.58483" result="effect1_foregroundBlur_327_39"/>
</filter>
<filter id="filter19_f_327_39" x="32.0573" y="68.749" width="602.371" height="1035.64" filterUnits="userSpaceOnUse" color-interpolation-filters="sRGB">
<feFlood flood-opacity="0" result="BackgroundImageFix"/>
<feBlend mode="normal" in="SourceGraphic" in2="BackgroundImageFix" result="shape"/>
<feGaussianBlur stdDeviation="23.0469" result="effect1_foregroundBlur_327_39"/>
</filter>
<filter id="filter20_f_327_39" x="25.4573" y="-4.75739" width="809.016" height="1332.25" filterUnits="userSpaceOnUse" color-interpolation-filters="sRGB">
<feFlood flood-opacity="0" result="BackgroundImageFix"/>
<feBlend mode="normal" in="SourceGraphic" in2="BackgroundImageFix" result="shape"/>
<feGaussianBlur stdDeviation="32.9241" result="effect1_foregroundBlur_327_39"/>
</filter>
<filter id="filter21_f_327_39" x="-81.5644" y="-214.182" width="1080.81" height="1548.08" filterUnits="userSpaceOnUse" color-interpolation-filters="sRGB">
<feFlood flood-opacity="0" result="BackgroundImageFix"/>
<feBlend mode="normal" in="SourceGraphic" in2="BackgroundImageFix" result="shape"/>
<feGaussianBlur stdDeviation="88.8952" result="effect1_foregroundBlur_327_39"/>
</filter>
<filter id="filter22_f_327_39" x="-347.012" y="-562.977" width="1708.4" height="1966.55" filterUnits="userSpaceOnUse" color-interpolation-filters="sRGB">
<feFlood flood-opacity="0" result="BackgroundImageFix"/>
<feBlend mode="normal" in="SourceGraphic" in2="BackgroundImageFix" result="shape"/>
<feGaussianBlur stdDeviation="220.592" result="effect1_foregroundBlur_327_39"/>
</filter>
<filter id="filter23_f_327_39" x="130.502" y="93.6966" width="306.889" height="624.581" filterUnits="userSpaceOnUse" color-interpolation-filters="sRGB">
<feFlood flood-opacity="0" result="BackgroundImageFix"/>
<feBlend mode="normal" in="SourceGraphic" in2="BackgroundImageFix" result="shape"/>
<feGaussianBlur stdDeviation="5.15916" result="effect1_foregroundBlur_327_39"/>
</filter>
<filter id="filter24_f_327_39" x="41.5949" y="8.83359" width="420.842" height="759.549" filterUnits="userSpaceOnUse" color-interpolation-filters="sRGB">
<feFlood flood-opacity="0" result="BackgroundImageFix"/>
<feBlend mode="normal" in="SourceGraphic" in2="BackgroundImageFix" result="shape"/>
<feGaussianBlur stdDeviation="18.0571" result="effect1_foregroundBlur_327_39"/>
</filter>
<filter id="filter25_f_327_39" x="-47.1927" y="-94.151" width="522.38" height="965.557" filterUnits="userSpaceOnUse" color-interpolation-filters="sRGB">
<feFlood flood-opacity="0" result="BackgroundImageFix"/>
<feBlend mode="normal" in="SourceGraphic" in2="BackgroundImageFix" result="shape"/>
<feGaussianBlur stdDeviation="25.7958" result="effect1_foregroundBlur_327_39"/>
</filter>
<filter id="filter26_f_327_39" x="-174.493" y="-116.83" width="687.768" height="1158.01" filterUnits="userSpaceOnUse" color-interpolation-filters="sRGB">
<feFlood flood-opacity="0" result="BackgroundImageFix"/>
<feBlend mode="normal" in="SourceGraphic" in2="BackgroundImageFix" result="shape"/>
<feGaussianBlur stdDeviation="69.6486" result="effect1_foregroundBlur_327_39"/>
</filter>
<filter id="filter27_f_327_39" x="-439.657" y="-269.251" width="1110.56" height="1599.41" filterUnits="userSpaceOnUse" color-interpolation-filters="sRGB">
<feFlood flood-opacity="0" result="BackgroundImageFix"/>
<feBlend mode="normal" in="SourceGraphic" in2="BackgroundImageFix" result="shape"/>
<feGaussianBlur stdDeviation="172.832" result="effect1_foregroundBlur_327_39"/>
</filter>
<filter id="filter28_f_327_39" x="-203.284" y="-196.321" width="732.083" height="1118.19" filterUnits="userSpaceOnUse" color-interpolation-filters="sRGB">
<feFlood flood-opacity="0" result="BackgroundImageFix"/>
<feBlend mode="normal" in="SourceGraphic" in2="BackgroundImageFix" result="shape"/>
<feGaussianBlur stdDeviation="79.9669" result="effect1_foregroundBlur_327_39"/>
</filter>
<filter id="filter29_f_327_39" x="301.689" y="498.127" width="230.042" height="308.075" filterUnits="userSpaceOnUse" color-interpolation-filters="sRGB">
<feFlood flood-opacity="0" result="BackgroundImageFix"/>
<feBlend mode="normal" in="SourceGraphic" in2="BackgroundImageFix" result="shape"/>
<feGaussianBlur stdDeviation="3.53048" result="effect1_foregroundBlur_327_39"/>
</filter>
<filter id="filter30_f_327_39" x="273.97" y="407.275" width="293.871" height="416.013" filterUnits="userSpaceOnUse" color-interpolation-filters="sRGB">
<feFlood flood-opacity="0" result="BackgroundImageFix"/>
<feBlend mode="normal" in="SourceGraphic" in2="BackgroundImageFix" result="shape"/>
<feGaussianBlur stdDeviation="12.3567" result="effect1_foregroundBlur_327_39"/>
</filter>
<filter id="filter31_f_327_39" x="232.911" y="240.002" width="380.647" height="576.378" filterUnits="userSpaceOnUse" color-interpolation-filters="sRGB">
<feFlood flood-opacity="0" result="BackgroundImageFix"/>
<feBlend mode="normal" in="SourceGraphic" in2="BackgroundImageFix" result="shape"/>
<feGaussianBlur stdDeviation="17.6524" result="effect1_foregroundBlur_327_39"/>
</filter>
<filter id="filter32_f_327_39" x="139.567" y="186.446" width="524.285" height="664.277" filterUnits="userSpaceOnUse" color-interpolation-filters="sRGB">
<feFlood flood-opacity="0" result="BackgroundImageFix"/>
<feBlend mode="normal" in="SourceGraphic" in2="BackgroundImageFix" result="shape"/>
<feGaussianBlur stdDeviation="47.6614" result="effect1_foregroundBlur_327_39"/>
</filter>
<filter id="filter33_f_327_39" x="-33.6947" y="-16.0313" width="791.578" height="1016.03" filterUnits="userSpaceOnUse" color-interpolation-filters="sRGB">
<feFlood flood-opacity="0" result="BackgroundImageFix"/>
<feBlend mode="normal" in="SourceGraphic" in2="BackgroundImageFix" result="shape"/>
<feGaussianBlur stdDeviation="118.271" result="effect1_foregroundBlur_327_39"/>
</filter>
<filter id="filter34_f_327_39" x="176.071" y="152.409" width="508.014" height="682.9" filterUnits="userSpaceOnUse" color-interpolation-filters="sRGB">
<feFlood flood-opacity="0" result="BackgroundImageFix"/>
<feBlend mode="normal" in="SourceGraphic" in2="BackgroundImageFix" result="shape"/>
<feGaussianBlur stdDeviation="54.7224" result="effect1_foregroundBlur_327_39"/>
</filter>
<linearGradient id="paint0_linear_327_39" x1="300.265" y1="0" x2="300.265" y2="554.013" gradientUnits="userSpaceOnUse">
<stop stop-color="#0239FE"/>
<stop offset="1" stop-color="#0285FE"/>
</linearGradient>
<linearGradient id="paint1_linear_327_39" x1="-243.91" y1="559.563" x2="-527.576" y2="677.898" gradientUnits="userSpaceOnUse">
<stop stop-color="#C4C4C4"/>
<stop offset="1" stop-color="#C4C4C4" stop-opacity="0"/>
</linearGradient>
<linearGradient id="paint2_linear_327_39" x1="-228.607" y1="251.89" x2="-280.482" y2="888.916" gradientUnits="userSpaceOnUse">
<stop stop-color="#C4C4C4"/>
<stop offset="1" stop-color="#C4C4C4" stop-opacity="0"/>
</linearGradient>
<linearGradient id="paint3_linear_327_39" x1="-487.521" y1="619.706" x2="34.1843" y2="645.148" gradientUnits="userSpaceOnUse">
<stop stop-color="#0239FE"/>
<stop offset="1" stop-color="#0285FE"/>
</linearGradient>
<linearGradient id="paint4_linear_327_39" x1="-457.225" y1="635.231" x2="99.1785" y2="662.365" gradientUnits="userSpaceOnUse">
<stop stop-color="#0239FE"/>
<stop offset="1" stop-color="#0285FE"/>
</linearGradient>
<linearGradient id="paint5_linear_327_39" x1="-411.179" y1="709.88" x2="163.813" y2="737.921" gradientUnits="userSpaceOnUse">
<stop stop-color="#0239FE"/>
<stop offset="1" stop-color="#0285FE"/>
</linearGradient>
<linearGradient id="paint6_linear_327_39" x1="-491.171" y1="669.083" x2="11.9465" y2="693.619" gradientUnits="userSpaceOnUse">
<stop stop-color="#0239FE"/>
<stop offset="1" stop-color="#0285FE"/>
</linearGradient>
<linearGradient id="paint7_linear_327_39" x1="-317.622" y1="672.02" x2="-213.995" y2="1093.94" gradientUnits="userSpaceOnUse">
<stop stop-color="#C4C4C4"/>
<stop offset="0.943414" stop-color="#C4C4C4" stop-opacity="0"/>
</linearGradient>
<linearGradient id="paint8_linear_327_39" x1="-341.975" y1="894.305" x2="-33.001" y2="901.701" gradientUnits="userSpaceOnUse">
<stop stop-color="#C4C4C4"/>
<stop offset="1" stop-color="#C4C4C4" stop-opacity="0"/>
</linearGradient>
<linearGradient id="paint9_linear_327_39" x1="71.511" y1="1140.41" x2="-482.789" y2="783.103" gradientUnits="userSpaceOnUse">
<stop stop-color="#C4C4C4"/>
<stop offset="1" stop-color="#C4C4C4" stop-opacity="0"/>
</linearGradient>
<linearGradient id="paint10_linear_327_39" x1="-304.994" y1="732.759" x2="128.627" y2="753.905" gradientUnits="userSpaceOnUse">
<stop offset="0.213542" stop-color="#0073FB"/>
<stop offset="0.567708" stop-color="#65FFED"/>
<stop offset="0.9375" stop-color="#070059"/>
</linearGradient>
<linearGradient id="paint11_linear_327_39" x1="173.384" y1="216.135" x2="-155.053" y2="724.834" gradientUnits="userSpaceOnUse">
<stop stop-color="#C4C4C4"/>
<stop offset="0.943414" stop-color="#C4C4C4" stop-opacity="0"/>
</linearGradient>
<linearGradient id="paint12_linear_327_39" x1="214.453" y1="451.26" x2="704.445" y2="641.104" gradientUnits="userSpaceOnUse">
<stop stop-color="#C4C4C4"/>
<stop offset="1" stop-color="#C4C4C4" stop-opacity="0"/>
</linearGradient>
<linearGradient id="paint13_linear_327_39" x1="444.104" y1="445.957" x2="71.0673" y2="385.336" gradientUnits="userSpaceOnUse">
<stop stop-color="#C4C4C4"/>
<stop offset="1" stop-color="#C4C4C4" stop-opacity="0"/>
</linearGradient>
<linearGradient id="paint14_linear_327_39" x1="431.675" y1="677.705" x2="665.13" y2="239.302" gradientUnits="userSpaceOnUse">
<stop stop-color="#C4C4C4"/>
<stop offset="1" stop-color="#C4C4C4" stop-opacity="0"/>
</linearGradient>
</defs>
</svg>
